<svg width="77" height="48" viewBox="0 0 77 48" fill="none" xmlns="http://www.w3.org/2000/svg">
<path d="M49.3318 47.4507H22.8413C22.5154 47.4507 22.2029 47.3212 21.9725 47.0908C21.7421 46.8604 21.6126 46.5478 21.6126 46.222C21.6126 45.8961 21.7421 45.5836 21.9725 45.3532C22.2029 45.1227 22.5154 44.9933 22.8413 44.9933H48.1031V33.7385H7.37212V44.9933H17.5334C17.8592 44.9933 18.1718 45.1227 18.4022 45.3532C18.6326 45.5836 18.7621 45.8961 18.7621 46.222C18.7621 46.5478 18.6326 46.8604 18.4022 47.0908C18.1718 47.3212 17.8592 47.4507 17.5334 47.4507H6.14344C5.81757 47.4507 5.50505 47.3212 5.27462 47.0908C5.0442 46.8604 4.91475 46.5478 4.91475 46.222V32.5098C4.91475 32.1839 5.0442 31.8714 5.27462 31.641C5.50505 31.4106 5.81757 31.2811 6.14344 31.2811H49.3318C49.6577 31.2811 49.9702 31.4106 50.2006 31.641C50.431 31.8714 50.5605 32.1839 50.5605 32.5098V46.222C50.5605 46.5478 50.431 46.8604 50.2006 47.0908C49.9702 47.3212 49.6577 47.4507 49.3318 47.4507Z" fill="#009933"/>
<path d="M17.5825 47.4507H12.7906C12.4648 47.4507 12.1522 47.3212 11.9218 47.0908C11.6914 46.8604 11.562 46.5478 11.562 46.222V32.5098C11.562 32.1839 11.6914 31.8714 11.9218 31.641C12.1522 31.4106 12.4648 31.2811 12.7906 31.2811C13.1165 31.2811 13.429 31.4106 13.6595 31.641C13.8899 31.8714 14.0193 32.1839 14.0193 32.5098V44.9933H16.3538V37.2403C16.3538 36.9144 16.4833 36.6019 16.7137 36.3714C16.9441 36.141 17.2567 36.0116 17.5825 36.0116C17.9084 36.0116 18.2209 36.141 18.4513 36.3714C18.6818 36.6019 18.8112 36.9144 18.8112 37.2403V46.1851C18.8161 46.3495 18.788 46.5133 18.7285 46.6666C18.6689 46.82 18.5792 46.9598 18.4646 47.0778C18.35 47.1959 18.2129 47.2897 18.0614 47.3537C17.9099 47.4178 17.747 47.4507 17.5825 47.4507ZM38.9985 43.0274C38.6727 43.0274 38.3602 42.8979 38.1297 42.6675C37.8993 42.4371 37.7699 42.1246 37.7699 41.7987V36.8839C37.7699 36.5581 37.8993 36.2455 38.1297 36.0151C38.3602 35.7847 38.6727 35.6553 38.9985 35.6553C39.3244 35.6553 39.6369 35.7847 39.8674 36.0151C40.0978 36.2455 40.2272 36.5581 40.2272 36.8839V41.7987C40.2272 42.1246 40.0978 42.4371 39.8674 42.6675C39.6369 42.8979 39.3244 43.0274 38.9985 43.0274ZM43.9133 43.0274C43.5874 43.0274 43.2749 42.8979 43.0445 42.6675C42.8141 42.4371 42.6846 42.1246 42.6846 41.7987V36.8839C42.6846 36.5581 42.8141 36.2455 43.0445 36.0151C43.2749 35.7847 43.5874 35.6553 43.9133 35.6553C44.2392 35.6553 44.5517 35.7847 44.7821 36.0151C45.0125 36.2455 45.142 36.5581 45.142 36.8839V41.7987C45.142 42.1246 45.0125 42.4371 44.7821 42.6675C44.5517 42.8979 44.2392 43.0274 43.9133 43.0274Z" fill="#009933"/>
<path d="M44.4171 33.7385H1.22869C0.902819 33.7385 0.590298 33.609 0.359874 33.3786C0.129451 33.1482 0 32.8357 0 32.5098V18.8099C0 18.4841 0.129451 18.1715 0.359874 17.9411C0.590298 17.7107 0.902819 17.5812 1.22869 17.5812H44.4171C44.7429 17.5812 45.0554 17.7107 45.2859 17.9411C45.5163 18.1715 45.6457 18.4841 45.6457 18.8099V32.5098C45.6457 32.8357 45.5163 33.1482 45.2859 33.3786C45.0554 33.609 44.7429 33.7385 44.4171 33.7385ZM2.45737 31.2811H43.1884V20.0386H2.45737V31.2811Z" fill="#009933"/>
<path d="M12.6678 33.7385H7.87589C7.55002 33.7385 7.2375 33.609 7.00708 33.3786C6.77665 33.1482 6.6472 32.8357 6.6472 32.5098V22.496C6.6472 22.1701 6.77665 21.8576 7.00708 21.6272C7.2375 21.3967 7.55002 21.2673 7.87589 21.2673C8.20176 21.2673 8.51428 21.3967 8.7447 21.6272C8.97513 21.8576 9.10458 22.1701 9.10458 22.496V31.232H11.4391V18.8099C11.4391 18.4841 11.5685 18.1715 11.799 17.9411C12.0294 17.7107 12.3419 17.5812 12.6678 17.5812C12.9936 17.5812 13.3062 17.7107 13.5366 17.9411C13.767 18.1715 13.8965 18.4841 13.8965 18.8099V32.5098C13.8965 32.8357 13.767 33.1482 13.5366 33.3786C13.3062 33.609 12.9936 33.7385 12.6678 33.7385ZM34.0838 29.3152C33.7579 29.3152 33.4454 29.1858 33.215 28.9553C32.9846 28.7249 32.8551 28.4124 32.8551 28.0865V23.1718C32.8551 22.8459 32.9846 22.5334 33.215 22.303C33.4454 22.0725 33.7579 21.9431 34.0838 21.9431C34.4097 21.9431 34.7222 22.0725 34.9526 22.303C35.183 22.5334 35.3125 22.8459 35.3125 23.1718V28.0865C35.3125 28.4124 35.183 28.7249 34.9526 28.9553C34.7222 29.1858 34.4097 29.3152 34.0838 29.3152ZM38.9985 29.3152C38.6727 29.3152 38.3602 29.1858 38.1297 28.9553C37.8993 28.7249 37.7699 28.4124 37.7699 28.0865V23.1718C37.7699 22.8459 37.8993 22.5334 38.1297 22.303C38.3602 22.0725 38.6727 21.9431 38.9985 21.9431C39.3244 21.9431 39.6369 22.0725 39.8674 22.303C40.0978 22.5334 40.2272 22.8459 40.2272 23.1718V28.0865C40.2272 28.4124 40.0978 28.7249 39.8674 28.9553C39.6369 29.1858 39.3244 29.3152 38.9985 29.3152Z" fill="#009933"/>
<path d="M51.7892 20.0386H8.60082C8.27495 20.0386 7.96243 19.9092 7.73201 19.6788C7.50158 19.4483 7.37213 19.1358 7.37213 18.8099V5.0855C7.37213 4.75963 7.50158 4.44711 7.73201 4.21668C7.96243 3.98626 8.27495 3.85681 8.60082 3.85681H51.7892C52.1151 3.85681 52.4276 3.98626 52.658 4.21668C52.8884 4.44711 53.0179 4.75963 53.0179 5.0855C53.0179 5.41137 52.8884 5.72389 52.658 5.95431C52.4276 6.18474 52.1151 6.31419 51.7892 6.31419H9.82951V17.5813H50.5605V14.3867C50.5605 14.0608 50.6899 13.7483 50.9204 13.5179C51.1508 13.2874 51.4633 13.158 51.7892 13.158C52.1151 13.158 52.4276 13.2874 52.658 13.5179C52.8884 13.7483 53.0179 14.0608 53.0179 14.3867V18.8099C53.0179 19.1358 52.8884 19.4483 52.658 19.6788C52.4276 19.9092 52.1151 20.0386 51.7892 20.0386Z" fill="#009933"/>
<path d="M15.248 20.0386C14.9222 20.0386 14.6096 19.9092 14.3792 19.6787C14.1488 19.4483 14.0193 19.1358 14.0193 18.8099V5.08549C14.0193 4.75962 14.1488 4.4471 14.3792 4.21668C14.6096 3.98625 14.9222 3.8568 15.248 3.8568H20.0399C20.3658 3.8568 20.6783 3.98625 20.9087 4.21668C21.1391 4.4471 21.2686 4.75962 21.2686 5.08549V15.6153C21.2686 15.9412 21.1391 16.2537 20.9087 16.4842C20.6783 16.7146 20.3658 16.844 20.0399 16.844C19.714 16.844 19.4015 16.7146 19.1711 16.4842C18.9407 16.2537 18.8112 15.9412 18.8112 15.6153V6.31418H16.4767V18.8099C16.4767 19.1358 16.3473 19.4483 16.1168 19.6787C15.8864 19.9092 15.5739 20.0386 15.248 20.0386ZM41.4559 15.6153C41.1301 15.6153 40.8175 15.4859 40.5871 15.2555C40.3567 15.025 40.2272 14.7125 40.2272 14.3867V9.4719C40.2272 9.14604 40.3567 8.83352 40.5871 8.60309C40.8175 8.37267 41.1301 8.24322 41.4559 8.24322C41.7818 8.24322 42.0943 8.37267 42.3247 8.60309C42.5552 8.83352 42.6846 9.14604 42.6846 9.4719V14.3867C42.6846 14.7125 42.5552 15.025 42.3247 15.2555C42.0943 15.4859 41.7818 15.6153 41.4559 15.6153ZM46.3707 15.6153C46.0448 15.6153 45.7323 15.4859 45.5019 15.2555C45.2714 15.025 45.142 14.7125 45.142 14.3867V9.4719C45.142 9.14604 45.2714 8.83352 45.5019 8.60309C45.7323 8.37267 46.0448 8.24322 46.3707 8.24322C46.6965 8.24322 47.0091 8.37267 47.2395 8.60309C47.4699 8.83352 47.5994 9.14604 47.5994 9.4719V14.3867C47.5994 14.7125 47.4699 15.025 47.2395 15.2555C47.0091 15.4859 46.6965 15.6153 46.3707 15.6153ZM61.4344 47.4506C61.1893 47.4512 60.9497 47.3784 60.7463 47.2418C60.6083 47.1534 60.4894 47.0382 60.3965 46.9032C60.3037 46.7682 60.2388 46.6159 60.2057 46.4554L52.6247 8.51353C52.5925 8.35454 52.5922 8.19076 52.6236 8.03163C52.6551 7.87251 52.7178 7.72119 52.808 7.5864C52.8982 7.45161 53.0143 7.33602 53.1494 7.24631C53.2845 7.15659 53.4361 7.09452 53.5954 7.06368C53.9129 7.00204 54.2419 7.0681 54.511 7.24752C54.7802 7.42694 54.9677 7.70525 55.0329 8.02205L62.405 44.7721L73.4632 42.5605L65.4399 2.67726L53.153 5.13464C52.9949 5.16694 52.832 5.16778 52.6735 5.13709C52.5151 5.10641 52.3642 5.04481 52.2296 4.95581C52.0949 4.86681 51.9791 4.75216 51.8888 4.6184C51.7985 4.48464 51.7354 4.3344 51.7032 4.17626C51.671 4.01727 51.6707 3.85349 51.7021 3.69437C51.7336 3.53524 51.7962 3.38392 51.8865 3.24913C51.9767 3.11434 52.0928 2.99876 52.2279 2.90904C52.363 2.81932 52.5146 2.75725 52.6738 2.72641L66.1157 0.0232976C66.4351 -0.039807 66.7666 0.0264813 67.0372 0.2076C67.3058 0.394104 67.4944 0.674812 67.5655 0.993961L76.0558 43.2731C76.0879 43.4321 76.0883 43.5959 76.0568 43.755C76.0254 43.9141 75.9627 44.0654 75.8725 44.2002C75.7822 44.335 75.6662 44.4506 75.531 44.5403C75.3959 44.63 75.2443 44.6921 75.0851 44.7229L61.6433 47.4261L61.4344 47.4506Z" fill="#009933"/>
<path d="M60.2057 40.9263C59.9182 40.9321 59.6379 40.8369 59.4134 40.6573C59.1889 40.4777 59.0344 40.2251 58.977 39.9434L58.0309 35.2498C57.9678 34.9303 58.0341 34.5989 58.2152 34.3283C58.3002 34.191 58.4129 34.0731 58.5463 33.9821C58.6796 33.8911 58.8305 33.829 58.9893 33.7999L72.4066 31.0968C72.5655 31.0647 72.7293 31.0643 72.8884 31.0958C73.0476 31.1272 73.1989 31.1899 73.3337 31.2801C73.4685 31.3704 73.5841 31.4864 73.6738 31.6215C73.7635 31.7567 73.8256 31.9082 73.8564 32.0675L74.8025 36.7611C74.8656 37.0805 74.7993 37.412 74.6182 37.6826C74.4401 37.9541 74.1618 38.144 73.8441 38.2109L60.4023 40.9263C60.337 40.9337 60.271 40.9337 60.2057 40.9263ZM60.7094 36.0116L61.1641 38.2969L72.2222 36.0853L71.7676 33.7999L60.7094 36.0116ZM59.321 14.4235C59.0318 14.4288 58.7501 14.3319 58.5253 14.1498C58.3006 13.9678 58.1472 13.7123 58.0923 13.4283C58.0307 13.1108 58.0968 12.7818 58.2762 12.5126C58.4556 12.2435 58.7339 12.056 59.0507 11.9907L63.8426 11.0201C64.0016 10.9879 64.1654 10.9876 64.3245 11.019C64.4836 11.0505 64.6349 11.1131 64.7697 11.2034C64.9045 11.2936 65.0201 11.4096 65.1098 11.5448C65.1995 11.6799 65.2616 11.8315 65.2925 11.9907C65.3248 12.1489 65.3256 12.3118 65.2949 12.4703C65.2642 12.6287 65.2026 12.7796 65.1136 12.9142C65.0246 13.0488 64.91 13.1646 64.7762 13.2549C64.6425 13.3453 64.4922 13.4083 64.3341 13.4406L59.5422 14.399L59.321 14.4235ZM58.3504 9.60708C58.0245 9.63804 57.6997 9.53828 57.4474 9.32975C57.1951 9.12121 57.0359 8.82099 57.005 8.49512C56.974 8.16925 57.0738 7.84443 57.2823 7.59212C57.4908 7.3398 57.791 7.18066 58.1169 7.14971L62.8965 6.19133C63.2224 6.12616 63.5608 6.1931 63.8373 6.37744C64.1138 6.56178 64.3058 6.84841 64.3709 7.17428C64.4361 7.50015 64.3692 7.83856 64.1848 8.11507C64.0005 8.39158 63.7139 8.58353 63.388 8.64871L58.5961 9.61937L58.3504 9.60708Z" fill="#009933"/>
</svg>
