<svg width="26" height="25" viewBox="0 0 26 25" fill="none" xmlns="http://www.w3.org/2000/svg">
<path d="M12.9999 0C9.91308 0.000126195 6.92699 1.08311 4.57596 3.05518C2.22493 5.02724 0.662382 7.7597 0.167907 10.7636C-0.326567 13.7676 0.279297 16.8469 1.87709 19.4508C3.47489 22.0546 5.96035 24.013 8.88875 24.9755C9.53874 25.0876 9.78249 24.7032 9.78249 24.3667C9.78249 24.0623 9.76623 23.053 9.76623 21.9797C6.49999 22.5724 5.655 21.1947 5.395 20.4738C5.1065 19.7727 4.64916 19.1514 4.06251 18.6635C3.60751 18.4232 2.95751 17.8305 4.04624 17.8145C4.46196 17.859 4.86068 18.0016 5.20862 18.2302C5.55655 18.4589 5.84345 18.7669 6.04499 19.1281C6.22279 19.443 6.46187 19.7202 6.74853 19.9438C7.03519 20.1675 7.3638 20.3332 7.71552 20.4314C8.06724 20.5296 8.43517 20.5584 8.79821 20.5162C9.16126 20.474 9.51229 20.3616 9.83119 20.1854C9.88747 19.5339 10.182 18.9247 10.66 18.4713C7.76748 18.1509 4.745 17.0455 4.745 12.1433C4.72673 10.8696 5.20349 9.63724 6.07749 8.699C5.68006 7.59197 5.72656 6.37708 6.20749 5.30272C6.20749 5.30272 7.29619 4.96628 9.78246 6.61638C11.9096 6.03962 14.1553 6.03962 16.2824 6.61638C18.7686 4.95028 19.8574 5.30272 19.8574 5.30272C20.3384 6.37706 20.3849 7.59198 19.9874 8.699C20.864 9.63564 21.3412 10.8691 21.3199 12.1433C21.3199 17.0615 18.2811 18.1509 15.3887 18.4713C15.6989 18.7813 15.9379 19.1535 16.0893 19.5626C16.2407 19.9717 16.301 20.4082 16.2662 20.8423C16.2662 22.5565 16.2499 23.9342 16.2499 24.3667C16.2499 24.7032 16.4937 25.1037 17.1437 24.9755C20.0669 24.0052 22.5452 22.0422 24.1362 19.437C25.7272 16.8319 26.3273 13.7541 25.8294 10.7531C25.3315 7.75204 23.768 5.02313 21.418 3.05346C19.068 1.0838 16.0844 0.00158268 12.9999 0Z" fill="white"/>
</svg>
