<svg width="26" height="29" viewBox="0 0 26 29" fill="none" xmlns="http://www.w3.org/2000/svg">
<path d="M12.5566 3.44525L23.431 9.72356V22.2802L12.5566 28.5585L1.68227 22.2802V9.72356L12.5566 3.44525Z" fill="black"/>
<path d="M20.4107 8.00572C20.5983 7.68084 20.72 7.3222 20.769 6.95028C20.8179 6.57835 20.7932 6.20043 20.6961 5.83807C20.599 5.47572 20.4315 5.13604 20.2031 4.83843C19.9747 4.54082 19.69 4.2911 19.3651 4.10353C19.0402 3.91596 18.6816 3.79422 18.3097 3.74526C17.9377 3.69629 17.5598 3.72106 17.1975 3.81816C16.8351 3.91525 16.4954 4.08276 16.1978 4.31113C15.9002 4.53949 15.6505 4.82424 15.4629 5.14912L17.9368 6.57742L20.4107 8.00572Z" fill="black"/>
<path d="M15.4629 5.1491C15.2754 5.47398 15.1536 5.83261 15.1046 6.20454C15.0557 6.57646 15.0805 6.95439 15.1775 7.31674C15.2746 7.67909 15.4421 8.01877 15.6705 8.31639C15.8989 8.614 16.1836 8.86372 16.5085 9.05129C16.8334 9.23885 17.192 9.36059 17.5639 9.40956C17.9359 9.45852 18.3138 9.43375 18.6761 9.33666C19.0385 9.23957 19.3782 9.07206 19.6758 8.84369C19.9734 8.61532 20.2231 8.33057 20.4107 8.0057L17.9368 6.5774L15.4629 5.1491Z" fill="white"/>
<path d="M4.85388 24.1494V13.0087H8.86127V15.6091H9.01652C9.28821 14.6841 9.74425 13.9854 10.3847 13.5132C11.0251 13.0345 11.7625 12.7952 12.597 12.7952C12.804 12.7952 13.0271 12.8081 13.2665 12.834C13.5058 12.8599 13.7161 12.8955 13.8972 12.9407V16.6085C13.7031 16.5503 13.4347 16.4986 13.0918 16.4533C12.749 16.408 12.4353 16.3853 12.1506 16.3853C11.5426 16.3853 10.9992 16.518 10.5205 16.7832C10.0483 17.0419 9.6731 17.4042 9.39494 17.8699C9.12325 18.3357 8.98741 18.8726 8.98741 19.4806V26.5837L4.85388 24.1494Z" fill="white"/>
<path d="M16.0343 26.5837V13.0087H20.1678V24.2363L16.0343 26.5837Z" fill="white"/>
</svg>
