<svg width="1011" height="1042" viewBox="0 0 1011 1042" fill="none" xmlns="http://www.w3.org/2000/svg">
<path d="M505.5 31L943.276 283.75V789.25L505.5 1042L67.7242 789.25V283.75L505.5 31Z" fill="#00973D"/>
<path d="M821.686 214.593C829.237 201.514 834.138 187.076 836.109 172.103C838.08 157.131 837.083 141.916 833.174 127.329C829.266 112.741 822.522 99.0666 813.329 87.0854C804.135 75.1041 792.672 65.051 779.593 57.5C766.514 49.949 752.076 45.048 737.103 43.0768C722.131 41.1056 706.916 42.1028 692.329 46.0115C677.741 49.9201 664.067 56.6638 652.085 65.8573C640.104 75.0508 630.051 86.5142 622.5 99.5929L722.093 157.093L821.686 214.593Z" fill="#00973D"/>
<path d="M622.5 99.5929C614.949 112.672 610.048 127.11 608.077 142.082C606.106 157.055 607.103 172.27 611.011 186.857C614.92 201.445 621.664 215.119 630.857 227.1C640.051 239.082 651.514 249.135 664.593 256.686C677.672 264.237 692.11 269.138 707.082 271.109C722.055 273.08 737.27 272.083 751.857 268.174C766.444 264.266 780.119 257.522 792.1 248.329C804.082 239.135 814.135 227.672 821.686 214.593L722.093 157.093L622.5 99.5929Z" fill="white"/>
<path d="M195.406 864.5V416H356.734V520.688H362.984C373.922 483.448 392.281 455.323 418.062 436.312C443.844 417.042 473.531 407.406 507.125 407.406C515.458 407.406 524.443 407.927 534.078 408.969C543.714 410.01 552.177 411.443 559.469 413.266V560.922C551.656 558.578 540.849 556.495 527.047 554.672C513.245 552.849 500.615 551.938 489.156 551.938C464.677 551.938 442.802 557.276 423.531 567.953C404.521 578.37 389.417 592.953 378.219 611.703C367.281 630.453 361.812 652.068 361.812 676.547V962.5L195.406 864.5Z" fill="white"/>
<path d="M645.504 962.5V416H811.91V868L645.504 962.5Z" fill="white"/>
</svg>
